<svg xmlns="http://www.w3.org/2000/svg" aria-hidden="true" style="position:absolute;width:0;height:0;overflow:hidden">
  <defs>
    <symbol id="icon-brush" viewBox="0 0 32 32">
      <path stroke-linecap="round" stroke-linejoin="round" stroke-width="2.667" d="M17.037 20 12 14.963M2.667 29.333c2.667 0 6.144.456 7.966-1.367a4.668 4.668 0 0 0-6.6-6.6c-1.823 1.823 0 5.3-1.367 7.966z"/>
      <path stroke-linecap="round" stroke-linejoin="round" stroke-width="2.667" d="M10.667 21.333c-.655-.655-.983-.983-1.168-1.326a2.668 2.668 0 0 1 .05-2.623c.198-.336.538-.651 1.218-1.28L23.924 3.921a2.94 2.94 0 0 1 4.153 4.153L15.894 21.231c-.63.68-.944 1.02-1.28 1.218-.805.475-1.8.495-2.623.051-.343-.185-.671-.513-1.326-1.168z"/>
    </symbol>
    <symbol id="icon-down" viewBox="0 0 32 32">
      <path stroke-width="3.2" d="m24 12-8 8-8-8"/>
    </symbol>
    <symbol id="icon-favicon" viewBox="0 0 32 32">
      <path fill="#1c1d20" d="M6.667 0h18.667a6.667 6.667 0 0 1 6.667 6.667v18.667a6.667 6.667 0 0 1-6.667 6.667H6.667A6.667 6.667 0 0 1 0 25.334V6.667A6.667 6.667 0 0 1 6.667 0z" style="fill:var(--color1, #1c1d20)"/>
      <path fill="#fafafa" d="M12.432 20.797a3.613 3.613 0 0 1-1.484-.293c-.438-.2-.786-.49-1.042-.872s-.384-.846-.384-1.393v-.189h1.452v.189c0 .265.061.497.182.697.126.2.297.354.514.462.221.104.475.156.762.156.308 0 .571-.065.788-.195s.382-.321.495-.573c.113-.256.169-.569.169-.937v-6.882h1.452v6.882c0 .621-.119 1.152-.358 1.595a2.415 2.415 0 0 1-1.003 1.009c-.434.23-.948.345-1.543.345zm6.101-4.375.091-1.999-1.68 1.087-.521-.898 1.784-.911-1.784-.911.521-.911 1.68 1.087-.091-1.999h1.029l-.091 1.999 1.68-1.087.521.911-1.784.911 1.784.911-.521.898-1.68-1.087.091 1.999h-1.029z" style="fill:var(--color2, #fafafa)"/>
    </symbol>
    <symbol id="icon-hourglass" viewBox="0 0 32 32">
      <path stroke-linecap="round" stroke-linejoin="round" stroke-width="2.667" d="M24.217 2.667H7.783c-.617 0-1.117.5-1.117 1.117a13.4 13.4 0 0 0 3.925 9.475l1.626 1.626c.161.161.242.242.3.32a1.335 1.335 0 0 1 0 1.594c-.058.077-.139.158-.3.32l-1.626 1.626a13.4 13.4 0 0 0-3.925 9.475c0 .617.5 1.117 1.117 1.117h16.434c.617 0 1.117-.5 1.117-1.117a13.4 13.4 0 0 0-3.925-9.475l-1.626-1.626c-.161-.161-.242-.242-.3-.32a1.332 1.332 0 0 1 0-1.594c.058-.077.139-.158.3-.32l1.626-1.626a13.4 13.4 0 0 0 3.925-9.475c0-.617-.5-1.117-1.117-1.117z"/>
    </symbol>
    <symbol id="icon-image" viewBox="0 0 32 32">
      <path d="M7.2 0h17.6A7.2 7.2 0 0 1 32 7.2v17.6a7.2 7.2 0 0 1-7.2 7.2H7.2A7.2 7.2 0 0 1 0 24.8V7.2A7.2 7.2 0 0 1 7.2 0z"/>
    </symbol>
    <symbol id="icon-jefferson" viewBox="0 0 32 32">
      <path d="m27.971 15.579.117-2.468-2.156 1.343-.669-1.109 2.29-1.126-2.29-1.126.669-1.126 2.156 1.343-.117-2.468h1.321l-.117 2.468 2.157-1.343.669 1.126-2.29 1.126 2.29 1.126-.669 1.109-2.157-1.343.117 2.468h-1.321zM23.106 11.579v1.417h-5.422v-1.417h5.422zm-3.944 9.053V10.527c0-.561.132-1.028.395-1.401a2.436 2.436 0 0 1 1.048-.842 3.477 3.477 0 0 1 1.401-.283c.384 0 .71.03.98.089s.467.111.593.154l-.447 1.425a4.79 4.79 0 0 0-.335-.089 2.155 2.155 0 0 0-.498-.049c-.453 0-.779.108-.98.324-.2.211-.301.518-.301.923v9.854h-1.856z"/>
      <path d="M18.054 11.579v1.417h-5.422v-1.417h5.422zm-3.944 9.053V10.527c0-.561.132-1.028.395-1.401a2.436 2.436 0 0 1 1.048-.842 3.477 3.477 0 0 1 1.401-.283c.384 0 .71.03.98.089s.467.111.593.154l-.447 1.425a4.79 4.79 0 0 0-.335-.089 2.155 2.155 0 0 0-.498-.049c-.453 0-.779.108-.98.324-.2.211-.301.518-.301.923v9.854H14.11zM8.646 20.632c-.91 0-1.698-.19-2.363-.57s-1.179-.914-1.539-1.604c-.355-.695-.533-1.505-.533-2.43 0-.92.175-1.73.524-2.43.355-.7.852-1.246 1.49-1.636.643-.396 1.398-.593 2.263-.593.527 0 1.037.083 1.531.249s.938.428 1.331.786c.394.358.705.823.932 1.395.233.572.349 1.262.349 2.069v.626H5.233v-1.307h6.466l-.84.433c0-.551-.089-1.037-.266-1.46s-.444-.751-.799-.986c-.349-.241-.785-.361-1.306-.361s-.968.12-1.34.361c-.366.241-.646.559-.84.954s-.291.829-.291 1.299v.89c0 .615.111 1.136.333 1.564s.53.754.924.978c.399.225.863.337 1.39.337.344 0 .655-.048.932-.144.283-.096.527-.241.732-.433s.361-.43.466-.714l1.714.313c-.139.481-.383.904-.732 1.267s-.791.647-1.323.85c-.527.198-1.129.297-1.806.297zM1.439 11.506h1.708v9.688c.005.607-.1 1.12-.316 1.537s-.532.732-.949.944C1.466 23.892.954 24 .348 24H0v-1.521h.277c.411 0 .706-.111.886-.333s.271-.542.277-.96v-9.68zm.846-1.399c-.3 0-.556-.103-.767-.309s-.316-.453-.316-.74c0-.293.105-.542.316-.748s.467-.309.767-.309c.295 0 .548.103.759.309a.997.997 0 0 1 .324.748.987.987 0 0 1-.324.74 1.048 1.048 0 0 1-.759.309z"/>
    </symbol>
    <symbol id="icon-left" viewBox="0 0 32 32">
      <path stroke-linecap="round" stroke-linejoin="round" stroke-width="2" d="M26.667 16H5.334M13.333 24l-8-8 8-8"/>
    </symbol>
    <symbol id="icon-menu" viewBox="0 0 32 32">
      <path stroke-linecap="round" stroke-linejoin="round" stroke-width="2.286" d="M4 11.333h24M4 20.667h24"/>
    </symbol>
    <symbol id="icon-message" viewBox="0 0 32 32">
      <path stroke-linecap="round" stroke-linejoin="round" stroke-width="2.667" d="M8.126 14.972A10.66 10.66 0 0 1 8 13.334C8 7.443 12.807 2.667 18.737 2.667s10.737 4.776 10.737 10.667c0 1.331-.245 2.605-.693 3.779-.093.244-.14.366-.161.461s-.029.161-.031.257c-.002.097.011.205.037.42l.537 4.36c.058.472.087.708.009.88a.667.667 0 0 1-.343.335c-.173.075-.409.04-.879-.029l-4.247-.623a2.965 2.965 0 0 0-.434-.048c-.1.001-.169.008-.267.028s-.225.068-.477.163a10.78 10.78 0 0 1-3.787.683c-.558 0-1.105-.042-1.64-.124m-6.923 5.457c3.953 0 7.158-3.283 7.158-7.333s-3.205-7.333-7.158-7.333c-3.953 0-7.158 3.283-7.158 7.333 0 .814.13 1.597.369 2.329.101.309.152.464.168.57.017.11.02.172.014.284-.006.107-.033.227-.086.469l-.815 3.682 3.993-.545c.218-.03.327-.045.422-.044.1.001.153.006.252.026.093.019.232.067.51.165a6.994 6.994 0 0 0 2.332.398z"/>
    </symbol>
    <symbol id="icon-right" viewBox="0 0 32 32">
      <path stroke-linecap="round" stroke-linejoin="round" stroke-width="2" d="M5.333 16h21.333M18.667 8l8 8-8 8"/>
    </symbol>
    <symbol id="icon-up" viewBox="0 0 32 32">
      <path stroke-width="3.2" d="m24 20-8-8-8 8"/>
    </symbol>
    <symbol id="icon-user" viewBox="0 0 32 32">
      <path stroke-linecap="round" stroke-linejoin="round" stroke-width="2.667" d="M26.667 28c0-1.861 0-2.791-.23-3.548a5.333 5.333 0 0 0-3.556-3.556c-.757-.23-1.687-.23-3.548-.23h-6.667c-1.861 0-2.791 0-3.548.23a5.335 5.335 0 0 0-3.556 3.556c-.23.757-.23 1.687-.23 3.548M16 16a6 6 0 1 0 0-12 6 6 0 0 0 0 12z"/>
    </symbol>
    <symbol id="icon-x" viewBox="0 0 32 32">
      <path stroke-linecap="round" stroke-linejoin="round" stroke-width="2.286" d="M24 8 8 24M8 8l16 16"/>
    </symbol>
  </defs>
</svg>
